<svg width="39" height="23" viewBox="0 0 39 23" fill="none" xmlns="http://www.w3.org/2000/svg">
<g clip-path="url(#clip0_0_91)">
<rect width="39" height="3" fill="white"/>
<path d="M5.34284 12.3521H7.22273C7.19766 12.8963 7.05085 13.3761 6.7823 13.7915C6.51374 14.2069 6.14135 14.5309 5.66511 14.7637C5.19245 14.9928 4.63386 15.1074 3.98933 15.1074C3.46654 15.1074 2.99926 15.0197 2.58747 14.8442C2.17927 14.6688 1.83194 14.4163 1.54548 14.0869C1.2626 13.7575 1.04597 13.3582 0.895578 12.8892C0.748768 12.4201 0.675364 11.8919 0.675364 11.3047V10.8804C0.675364 10.2931 0.752349 9.76497 0.906321 9.2959C1.06387 8.82324 1.28588 8.4222 1.57234 8.09277C1.86238 7.75977 2.20971 7.50553 2.61433 7.33008C3.01895 7.15462 3.46833 7.06689 3.96247 7.06689C4.64281 7.06689 5.21752 7.18864 5.68659 7.43213C6.15567 7.67562 6.51911 8.01042 6.77693 8.43652C7.03474 8.85905 7.18692 9.34066 7.23347 9.88135H5.35359C5.34642 9.58773 5.29629 9.34245 5.2032 9.14551C5.1101 8.94499 4.96329 8.7946 4.76277 8.69434C4.56225 8.59408 4.29548 8.54395 3.96247 8.54395C3.72973 8.54395 3.52741 8.58691 3.35554 8.67285C3.18366 8.75879 3.04044 8.89486 2.92585 9.08105C2.81127 9.26725 2.72533 9.50895 2.66804 9.80615C2.61433 10.0998 2.58747 10.4543 2.58747 10.8696V11.3047C2.58747 11.7201 2.61254 12.0745 2.66267 12.3682C2.7128 12.6618 2.79336 12.9017 2.90437 13.0879C3.01537 13.2741 3.1586 13.4119 3.33405 13.5015C3.51309 13.5874 3.73152 13.6304 3.98933 13.6304C4.27579 13.6304 4.51749 13.5856 4.71443 13.4961C4.91137 13.403 5.06355 13.2633 5.17097 13.0771C5.27839 12.8874 5.33568 12.6457 5.34284 12.3521ZM14.2635 13.5498V15H10.3103V13.5498H14.2635ZM10.9817 7.17969V15H9.09647V7.17969H10.9817ZM22.314 10.9341V11.251C22.314 11.849 22.2298 12.3861 22.0615 12.8623C21.8968 13.335 21.6623 13.7396 21.3579 14.0762C21.0535 14.4092 20.6937 14.6652 20.2783 14.8442C19.863 15.0197 19.4046 15.1074 18.9033 15.1074C18.3984 15.1074 17.9365 15.0197 17.5176 14.8442C17.1022 14.6652 16.7406 14.4092 16.4326 14.0762C16.1283 13.7396 15.8919 13.335 15.7236 12.8623C15.5589 12.3861 15.4766 11.849 15.4766 11.251V10.9341C15.4766 10.3361 15.5589 9.79899 15.7236 9.32275C15.8919 8.84652 16.1265 8.44189 16.4272 8.10889C16.7316 7.7723 17.0915 7.51628 17.5068 7.34082C17.9258 7.16178 18.3877 7.07227 18.8926 7.07227C19.3939 7.07227 19.8522 7.16178 20.2676 7.34082C20.6865 7.51628 21.0482 7.7723 21.3525 8.10889C21.6569 8.44189 21.8932 8.84652 22.0615 9.32275C22.2298 9.79899 22.314 10.3361 22.314 10.9341ZM20.4019 11.251V10.9233C20.4019 10.5366 20.3678 10.1965 20.2998 9.90283C20.2354 9.60563 20.1387 9.35677 20.0098 9.15625C19.8809 8.95573 19.7215 8.80534 19.5317 8.70508C19.3455 8.60124 19.1325 8.54932 18.8926 8.54932C18.6419 8.54932 18.4235 8.60124 18.2373 8.70508C18.0511 8.80534 17.8953 8.95573 17.77 9.15625C17.6447 9.35677 17.5498 9.60563 17.4854 9.90283C17.4245 10.1965 17.394 10.5366 17.394 10.9233V11.251C17.394 11.6341 17.4245 11.9743 17.4854 12.2715C17.5498 12.5651 17.6447 12.814 17.77 13.0181C17.8989 13.2222 18.0565 13.3761 18.2427 13.48C18.4325 13.5838 18.6527 13.6357 18.9033 13.6357C19.1432 13.6357 19.3563 13.5838 19.5425 13.48C19.7287 13.3761 19.8844 13.2222 20.0098 13.0181C20.1387 12.814 20.2354 12.5651 20.2998 12.2715C20.3678 11.9743 20.4019 11.6341 20.4019 11.251ZM28.302 12.9214C28.302 12.7996 28.2841 12.6904 28.2483 12.5938C28.2124 12.4935 28.1462 12.4004 28.0495 12.3145C27.9528 12.2285 27.8132 12.1426 27.6306 12.0566C27.4515 11.9671 27.2152 11.874 26.9216 11.7773C26.5778 11.6628 26.2466 11.5339 25.9279 11.3906C25.6093 11.2438 25.3246 11.0737 25.0739 10.8804C24.8233 10.6834 24.6246 10.4543 24.4777 10.1929C24.3309 9.9279 24.2575 9.61995 24.2575 9.26904C24.2575 8.93245 24.3327 8.62988 24.4831 8.36133C24.6335 8.08919 24.843 7.85824 25.1115 7.66846C25.3837 7.4751 25.7024 7.32829 26.0676 7.22803C26.4328 7.12419 26.8321 7.07227 27.2653 7.07227C27.8383 7.07227 28.3431 7.17253 28.78 7.37305C29.2204 7.56999 29.5642 7.85107 29.8112 8.21631C30.0619 8.57796 30.1872 9.00586 30.1872 9.5H28.3127C28.3127 9.30306 28.2715 9.12939 28.1892 8.979C28.1104 8.82861 27.9904 8.71045 27.8293 8.62451C27.6682 8.53857 27.4659 8.49561 27.2224 8.49561C26.986 8.49561 26.7873 8.53141 26.6262 8.60303C26.4651 8.67464 26.3433 8.77132 26.261 8.89307C26.1786 9.01123 26.1374 9.14193 26.1374 9.28516C26.1374 9.40332 26.1696 9.51074 26.2341 9.60742C26.3021 9.70052 26.397 9.78825 26.5188 9.87061C26.6441 9.95296 26.7945 10.0317 26.9699 10.1069C27.149 10.1821 27.3495 10.2555 27.5715 10.3271C27.9869 10.4596 28.3557 10.6082 28.6779 10.7729C29.0038 10.9341 29.2777 11.1185 29.4997 11.3262C29.7253 11.5303 29.8954 11.763 30.01 12.0244C30.1281 12.2858 30.1872 12.5812 30.1872 12.9106C30.1872 13.2616 30.1192 13.5731 29.9831 13.8452C29.8471 14.1174 29.6519 14.3483 29.3977 14.5381C29.1434 14.7243 28.8391 14.8657 28.4846 14.9624C28.1301 15.0591 27.7344 15.1074 27.2976 15.1074C26.8965 15.1074 26.5009 15.0573 26.1106 14.957C25.7238 14.8532 25.3729 14.6956 25.0578 14.4844C24.7427 14.2695 24.4903 13.9956 24.3005 13.6626C24.1143 13.326 24.0212 12.9268 24.0212 12.4648H25.9118C25.9118 12.694 25.9423 12.8874 26.0031 13.0449C26.064 13.2025 26.1535 13.3296 26.2717 13.4263C26.3899 13.5194 26.5349 13.5874 26.7068 13.6304C26.8786 13.6698 27.0756 13.6895 27.2976 13.6895C27.5375 13.6895 27.7308 13.6554 27.8777 13.5874C28.0245 13.5158 28.1319 13.4227 28.1999 13.3081C28.268 13.1899 28.302 13.061 28.302 12.9214ZM37.5234 13.5498V15H33.3554V13.5498H37.5234ZM34.0268 7.17969V15H32.1415V7.17969H34.0268ZM36.9863 10.2842V11.686H33.3554V10.2842H36.9863ZM37.5395 7.17969V8.63525H33.3554V7.17969H37.5395Z" fill="white"/>
<rect y="20" width="39" height="3" fill="white"/>
</g>
<defs>
<clipPath id="clip0_0_91">
<rect width="39" height="23" fill="white"/>
</clipPath>
</defs>
</svg>
