<svg width="36" height="23" viewBox="0 0 36 23" fill="none" xmlns="http://www.w3.org/2000/svg">
<g clip-path="url(#clip0_1_168)">
<rect width="36" height="3" fill="#017EE2"/>
<path d="M3.68994 7.17969H5.22607L6.97168 12.6206L8.71729 7.17969H10.2534L7.59473 15H6.34863L3.68994 7.17969ZM2.75537 7.17969H4.34521L4.64062 13.1738V15H2.75537V7.17969ZM9.59814 7.17969H11.1934V15H9.30273V13.1738L9.59814 7.17969ZM18.7837 13.5498V15H14.6157V13.5498H18.7837ZM15.2871 7.17969V15H13.4019V7.17969H15.2871ZM18.2466 10.2842V11.686H14.6157V10.2842H18.2466ZM18.7998 7.17969V8.63525H14.6157V7.17969H18.7998ZM27.0884 7.17969V15H25.2085L22.4424 10.1338V15H20.5571V7.17969H22.4424L25.2085 12.0459V7.17969H27.0884ZM33.5239 7.17969H35.4092V12.2876C35.4092 12.8963 35.2821 13.4119 35.0278 13.8345C34.7736 14.2534 34.4173 14.5703 33.959 14.7852C33.5007 15 32.9618 15.1074 32.3423 15.1074C31.73 15.1074 31.1911 15 30.7256 14.7852C30.2637 14.5703 29.902 14.2534 29.6406 13.8345C29.3828 13.4119 29.2539 12.8963 29.2539 12.2876V7.17969H31.1445V12.2876C31.1445 12.6099 31.1911 12.873 31.2842 13.0771C31.3773 13.2777 31.5133 13.4245 31.6924 13.5176C31.8714 13.6107 32.0881 13.6572 32.3423 13.6572C32.6001 13.6572 32.8167 13.6107 32.9922 13.5176C33.1676 13.4245 33.3001 13.2777 33.3896 13.0771C33.4792 12.873 33.5239 12.6099 33.5239 12.2876V7.17969Z" fill="#017EE2"/>
<rect y="20" width="36" height="3" fill="#017EE2"/>
</g>
<defs>
<clipPath id="clip0_1_168">
<rect width="36" height="23" fill="white"/>
</clipPath>
</defs>
</svg>
